<svg xmlns="http://www.w3.org/2000/svg" width="169" height="169" viewBox="0 0 169 169"><g id="Slophy" transform="translate(-1053.592 -3551.769)"><rect id="Background" width="169" height="169" rx="30" transform="translate(1053.592 3551.769)" fill="#cbfe41"></rect><g id="Sloth" transform="translate(1090.592 3580.769)"><g id="Raggruppa_735" data-name="Raggruppa 735" transform="translate(0 0)"><circle id="Ellisse_620" data-name="Ellisse 620" cx="42.927" cy="42.927" r="42.927" transform="translate(4.101 18.397)" fill="#fff"></circle><path id="Tracciato_2859" data-name="Tracciato 2859" d="M520.374,1568.373a2.554,2.554,0,0,1,1.281,2.83c-.63,2.663-3.3,4.546-7.047,4.863-3.88.327-6.584-1.033-7.466-3.646a2.562,2.562,0,0,1,.7-2.694A11.353,11.353,0,0,1,520.374,1568.373Z" transform="translate(-466.944 -1505.768)" fill="#02202e"></path><path id="Tracciato_2860" data-name="Tracciato 2860" d="M182.507,999.117c3.015-4.066,8.394-6.455,8.394-6.455a30.375,30.375,0,0,0-16.685.711c-1.37-2.564,1.516-9.517,1.516-9.517-10.981,3.263-13.576,11.392-13.576,11.392-11.121-2.362-17.37,4.06-17.37,4.06a13.02,13.02,0,0,1,8.986,2.938,47.031,47.031,0,1,0,28.736-3.129Zm18.319,73.9a39.372,39.372,0,0,1-54.832.824,40.012,40.012,0,0,1-3.49-3.739,10.782,10.782,0,0,1-2.294-9.032q.049-.231.108-.461a9.974,9.974,0,0,1,1.526-3.349c4.432-6.21,17.858-7.253,20.908-15.031,3.011-7.676-3.568-17.367-13.626-15.894l-.147.022a18.742,18.742,0,0,0-14.879,12.607,39.4,39.4,0,0,1,75.633-7.98,18.469,18.469,0,0,0-17.036-9.256l-.145.009c-10.143.666-14.547,11.52-10,18.395,4.612,6.967,17.958,5.175,23.592,10.32a9.928,9.928,0,0,1,2.14,2.848q.1.2.2.406a10.49,10.49,0,0,1-.255,9.062A39.431,39.431,0,0,1,200.826,1073.02Z" transform="translate(-125.958 -983.856)" fill="#02202e"></path></g><g id="Raggruppa_736" data-name="Raggruppa 736" transform="translate(25.913 67.796)"><path id="Tracciato_2861" data-name="Tracciato 2861" d="M416.978,1632.136a3.694,3.694,0,0,0-1.952-3.068,3.607,3.607,0,0,0-3.6.111,40.518,40.518,0,0,1-34.2,3.606h0a3.677,3.677,0,0,0-3.557.691,3.6,3.6,0,0,0-1.213,3.385,19.778,19.778,0,0,0,3.983,9.056c-.29.523-.573,1.073-.845,1.657l-.045.1-.042.1c-1.762,4.2-1.737,9.193.071,14.447a30.106,30.106,0,0,0,3.083,6.412l2.413,3.619,4.069-1.537,2.517-.951h0l5.2-1.964,4.266-1.612,5.493-2.075-2.389-5.172c-.131-.353-1.242-3.533.473-5.611a6.947,6.947,0,0,1,2.565-1.857,24.13,24.13,0,0,0,7.53-4.592A18.177,18.177,0,0,0,416.978,1632.136Zm-26.047,30.545-.339-.942a2.119,2.119,0,1,0-3.988,1.434l.361,1.006-3.75,1.416s-5.68-8.52-2.662-15.708c.024-.052.05-.1.074-.152.27.179.544.354.825.521a23.239,23.239,0,0,0,11.859,3.073c.456,0,.915-.013,1.375-.037a12.944,12.944,0,0,0,.51,7.778Z" transform="translate(-372.404 -1628.642)" fill="#02202e"></path><path id="Tracciato_2862" data-name="Tracciato 2862" d="M448.753,1759.385a10.336,10.336,0,0,1,4.823-9.642,6.126,6.126,0,0,0-1.489-.158c-2.255,0-6.6.957-9.694,7.582-3.017,7.189,2.662,15.708,2.662,15.708l3.75-1.417-.362-1.006a2.119,2.119,0,1,1,3.988-1.434l.339.942,4.266-1.611s-2.751-6.39,1.331-11.271a16.8,16.8,0,0,1,6.922-4.349,27.836,27.836,0,0,0,4.526-3.639,17.635,17.635,0,0,0-4.614-.565C460.486,1748.525,453.234,1750.208,448.753,1759.385Z" transform="translate(-434.245 -1735.92)" fill="#fff"></path></g></g></g></svg>