<?xml version="1.0" standalone="no"?>
<!DOCTYPE svg PUBLIC "-//W3C//DTD SVG 20010904//EN"
 "http://www.w3.org/TR/2001/REC-SVG-20010904/DTD/svg10.dtd">
<svg version="1.0" xmlns="http://www.w3.org/2000/svg"
 width="512.000000pt" height="512.000000pt" viewBox="0 0 512.000000 512.000000"
 preserveAspectRatio="xMidYMid meet">

<g transform="translate(0.000000,512.000000) scale(0.100000,-0.100000)"
fill="#000000" stroke="none">
<path d="M1597 3836 l-956 -1275 962 -320 962 -321 950 316 c522 174 953 319
957 321 8 4 -1900 2553 -1912 2553 -4 0 -438 -573 -963 -1274z m959 -953 c-6
-7 -1339 -154 -1363 -151 -19 3 79 138 670 926 l692 922 3 -847 c1 -465 0
-848 -2 -850z"/>
<path d="M681 2349 c19 -24 449 -561 954 -1192 505 -631 922 -1146 928 -1144
12 4 1907 2371 1902 2376 -2 2 -432 -175 -954 -393 l-951 -396 -937 391 c-516
215 -947 394 -958 397 -16 4 -13 -3 16 -39z m1457 -919 l422 -175 0 -370 c0
-313 -2 -367 -14 -355 -19 21 -850 1062 -859 1077 -10 16 -58 35 451 -177z"/>
</g>
</svg>
