<svg id="Logo_Sloff" xmlns="http://www.w3.org/2000/svg" width="130.937" height="46" viewBox="0 0 130.937 46">
  <g id="Sloff" transform="translate(45.822 14.598)">
    <path id="Tracciato_1917" data-name="Tracciato 1917" d="M824.79,278.462a17.2,17.2,0,0,0,9.272,3.111c2.826,0,4.826-.254,4.826-2.508,0-2.222-2.127-2.635-5.906-3.493-6.064-1.4-7.874-3.175-7.874-6.574,0-3.905,3.111-5.588,7.811-5.588a18.738,18.738,0,0,1,7.685,1.809v3.461a25.745,25.745,0,0,0-8.1-1.873c-2.413,0-3.969.381-3.969,2.222s1.651,2.349,5.239,3.176c6.1,1.4,8.542,2.635,8.542,6.858,0,4.191-3.207,5.938-8.256,5.938a17.181,17.181,0,0,1-9.272-2.826Z" transform="translate(-824.79 -263.374)" fill="#001f12"/>
    <path id="Tracciato_1918" data-name="Tracciato 1918" d="M1184.911,281.6v3.429h-9.1a3,3,0,0,1-3-3V263.44h3.429v17.008a1.154,1.154,0,0,0,1.154,1.154Z" transform="translate(-1153.476 -263.402)" fill="#001f12"/>
    <path id="Tracciato_1919" data-name="Tracciato 1919" d="M1802.933,266.869a1.154,1.154,0,0,0-1.154,1.154v17.009h-3.429V266.437a3,3,0,0,1,3-3h9.1v3.429Z" transform="translate(-1744.264 -263.402)" fill="#001f12"/>
    <path id="Tracciato_1920" data-name="Tracciato 1920" d="M2020.743,266.869a1.154,1.154,0,0,0-1.154,1.154v17.009h-3.429V266.437a3,3,0,0,1,3-3h9.1v3.429Z" transform="translate(-1949.973 -263.402)" fill="#001f12"/>
    <path id="Tracciato_1921" data-name="Tracciato 1921" d="M1391.349,266.173a7.369,7.369,0,1,1-7.366,7.369,7.377,7.377,0,0,1,7.366-7.369m0-3.413a10.782,10.782,0,1,0,10.779,10.782,10.782,10.782,0,0,0-10.779-10.782Z" transform="translate(-1349.693 -262.76)" fill="#001f12"/>
    <rect id="Rettangolo_170" data-name="Rettangolo 170" width="22.804" height="3.413" transform="translate(55.54 8.222)" fill="#001f12"/>
    <path id="Tracciato_1922" data-name="Tracciato 1922" d="M2314.763,279.722l-.423-.6h-.379v.6h-.3V278h.767c.4,0,.639.209.639.545a.513.513,0,0,1-.411.523l.464.651Zm-.362-1.444h-.44v.577h.445c.216,0,.354-.111.354-.29S2314.623,278.278,2314.4,278.278Z" transform="translate(-2230.945 -277.153)" fill="#001f12"/>
    <path id="Tracciato_1923" data-name="Tracciato 1923" d="M2297.146,263.044a1.422,1.422,0,1,1-1.421,1.422,1.422,1.422,0,0,1,1.421-1.422m0-.284a1.707,1.707,0,1,0,1.707,1.706,1.706,1.706,0,0,0-1.707-1.706Z" transform="translate(-2213.738 -262.76)" fill="#001f12"/>
  </g>
  <g id="Sloth">
    <circle id="Ellisse_206" data-name="Ellisse 206" cx="19.464" cy="19.464" r="19.464" transform="translate(0 5.931)" fill="#fff"/>
    <path id="Tracciato_1924" data-name="Tracciato 1924" d="M304.027,457.651a1.055,1.055,0,0,1,.53,1.172,3,3,0,0,1-2.917,2.014c-1.606.136-2.722-.427-3.09-1.509a1.062,1.062,0,0,1,.288-1.115A4.7,4.7,0,0,1,304.027,457.651Z" transform="translate(-281.913 -431.726)" fill="#001f12"/>
    <path id="Tracciato_1925" data-name="Tracciato 1925" d="M38.715,22.47A19.359,19.359,0,0,0,23.4,6.319a9.976,9.976,0,0,1,3.477-2.675,12.58,12.58,0,0,0-6.906.294C19.4,2.878,20.594,0,20.594,0c-4.544,1.351-5.619,4.715-5.619,4.715A7.924,7.924,0,0,0,7.786,6.4a5.4,5.4,0,0,1,3.733,1.227,19.471,19.471,0,1,0,27.2,14.848Zm-15.289.837c1.909,2.883,7.433,2.142,9.764,4.271a4.1,4.1,0,0,1,.886,1.179c.029.056.056.111.082.167a4.341,4.341,0,0,1-.106,3.751A16.3,16.3,0,0,1,8.293,37.258a16.6,16.6,0,0,1-1.444-1.547A4.463,4.463,0,0,1,5.9,31.972c.013-.063.028-.127.044-.191a4.126,4.126,0,0,1,.632-1.389c1.833-2.571,7.389-3,8.654-6.222A5.033,5.033,0,0,0,9.589,17.6l-.061.009A7.764,7.764,0,0,0,3.37,22.824a16.307,16.307,0,0,1,31.3-3.3,7.651,7.651,0,0,0-7.051-3.833l-.059,0A5.037,5.037,0,0,0,23.426,23.307Z" transform="translate(0)" fill="#001f12"/>
    <path id="Tracciato_1926" data-name="Tracciato 1926" d="M211.517,506.777a1.532,1.532,0,0,0-.808-1.27,1.494,1.494,0,0,0-1.488.046,16.77,16.77,0,0,1-14.155,1.493h0a1.523,1.523,0,0,0-1.472.286,1.492,1.492,0,0,0-.5,1.4,7.8,7.8,0,0,0,3.722,5.544,9.625,9.625,0,0,0,4.908,1.272,11.358,11.358,0,0,0,1.266-.069,10.668,10.668,0,0,0,5.971-2.6A7.532,7.532,0,0,0,211.517,506.777Z" transform="translate(-182.343 -477.256)" fill="#001f12"/>
    <path id="Tracciato_1927" data-name="Tracciato 1927" d="M250.176,613.9a4.278,4.278,0,0,1,2-3.991s-2.828-.784-4.628,3.073c-1.249,2.975,1.1,6.5,1.1,6.5l1.552-.587-.149-.416a.877.877,0,0,1,.528-1.122h0a.877.877,0,0,1,1.122.529l.141.389,1.766-.667a4.816,4.816,0,0,1,.551-4.667,6.958,6.958,0,0,1,2.865-1.8,11.519,11.519,0,0,0,1.873-1.506A7.43,7.43,0,0,0,250.176,613.9Z" transform="translate(-233.447 -575.55)" fill="#fff"/>
    <path id="Tracciato_1928" data-name="Tracciato 1928" d="M228.194,580.6a7.316,7.316,0,0,1,1.91.233,11.52,11.52,0,0,1-1.873,1.506,6.957,6.957,0,0,0-2.866,1.8,4.817,4.817,0,0,0-.551,4.667l-1.766.667-.14-.389a.877.877,0,1,0-1.651.593l.149.416-1.552.584s-2.351-3.526-1.1-6.5c1.278-2.742,3.079-3.138,4.012-3.138a2.54,2.54,0,0,1,.616.065,4.279,4.279,0,0,0-2,3.991,7.29,7.29,0,0,1,6.808-4.494m0-1.7a9.233,9.233,0,0,0-3.682.753l-.677-.187a4.167,4.167,0,0,0-1.068-.129,5.308,5.308,0,0,0-2.758.788,7.446,7.446,0,0,0-2.792,3.33l-.014.03-.013.03a7.777,7.777,0,0,0,.043,5.576,11.849,11.849,0,0,0,1.212,2.524l.748,1.123,1.263-.477,1.552-.586.028-.01h0l1.614-.611,1.766-.667,1.692-.64-.731-1.611a3.084,3.084,0,0,1,.286-2.9,5.209,5.209,0,0,1,2.068-1.273l.238-.071.2-.133a11.881,11.881,0,0,0,2.258-1.854l1.6-1.968-2.428-.728A8.922,8.922,0,0,0,228.194,578.9Z" transform="translate(-204.656 -546.738)" fill="#001f12"/>
  </g>
</svg>
