<svg xmlns="http://www.w3.org/2000/svg" width="26.535" height="26.535" viewBox="0 0 26.535 26.535">
  <path id="svgexport-1" d="M13.268,0A13.268,13.268,0,1,0,26.535,13.268,13.269,13.269,0,0,0,13.268,0ZM6.546,13.713l.056-.09,3.452-5.4a.119.119,0,0,1,.207.016,7.36,7.36,0,0,1,.841,3.9,6,6,0,0,1-.679,1.483c-.04.074-.082.149-.13.22a.117.117,0,0,1-.1.05H6.647A.117.117,0,0,1,6.546,13.713Zm15.382,1.857a.12.12,0,0,1-.072.111,4.247,4.247,0,0,0-1.563,1.064c-.971,1.351-1.712,3.282-3.37,3.282H10.009a4.443,4.443,0,0,1-4.437-4.453V15.5a.118.118,0,0,1,.119-.117H9.545a.132.132,0,0,1,.127.146,1.3,1.3,0,0,0,.138.74,1.354,1.354,0,0,0,1.215.754h1.908V15.531H11.047a.122.122,0,0,1-.1-.191c.021-.032.042-.064.069-.1.178-.255.433-.647.687-1.1a8.81,8.81,0,0,0,.475-.95c.027-.058.048-.119.072-.178.037-.1.074-.2.1-.3s.05-.167.072-.247a3.874,3.874,0,0,0,.09-.87c0-.119-.005-.244-.016-.361s-.021-.26-.037-.39c-.011-.114-.032-.228-.053-.345-.029-.172-.066-.345-.109-.517l-.016-.066c-.032-.119-.061-.231-.1-.35-.109-.371-.231-.735-.364-1.075-.048-.135-.1-.265-.157-.393-.08-.2-.162-.374-.236-.541-.04-.077-.072-.146-.1-.218s-.074-.159-.114-.236c-.027-.058-.058-.114-.08-.167l-.234-.43a.076.076,0,0,1,.085-.111l1.459.4h.011l.191.056.212.058.077.021V6.066a.754.754,0,0,1,.751-.759.731.731,0,0,1,.528.223.763.763,0,0,1,.22.536V7.353l.157.042a.219.219,0,0,1,.034.019c.037.027.093.069.162.122s.114.1.183.151c.141.114.31.26.494.427.048.042.1.085.141.13.236.22.5.478.756.764.072.082.141.162.212.249s.146.172.21.257c.088.114.178.234.26.358.037.058.082.119.117.178a5.555,5.555,0,0,1,.284.48c.037.074.074.157.106.236a3.285,3.285,0,0,1,.223.661.719.719,0,0,1,.032.146v.011a1.227,1.227,0,0,1,.027.2,2.275,2.275,0,0,1-.037.682c-.021.1-.048.186-.08.284s-.066.188-.109.281a3.817,3.817,0,0,1-.292.555c-.037.066-.082.135-.125.2s-.1.135-.141.2c-.061.082-.125.167-.191.244a2.589,2.589,0,0,1-.183.231c-.09.109-.178.21-.271.308a2.3,2.3,0,0,1-.172.188c-.058.066-.119.125-.172.178-.093.093-.167.162-.231.223l-.151.135a.112.112,0,0,1-.08.032H14.432V17.02h1.462a1.36,1.36,0,0,0,.889-.329,10.794,10.794,0,0,0,.9-.886.1.1,0,0,1,.056-.034L21.777,14.6a.118.118,0,0,1,.151.114v.854Z" fill="#001f12"/>
</svg>
