<svg id="Logo_1_" xmlns="http://www.w3.org/2000/svg" width="32.656" height="26.535" viewBox="0 0 32.656 26.535">
  <path id="white_background" d="M30.313,8.1c.02.288.02.576.02.866,0,8.853-6.74,19.063-19.063,19.063v-.005a18.967,18.967,0,0,1-10.27-3,13.628,13.628,0,0,0,1.595.1,13.453,13.453,0,0,0,8.321-2.874,6.708,6.708,0,0,1-6.259-4.653,6.678,6.678,0,0,0,3.025-.115,6.7,6.7,0,0,1-5.374-6.567v-.085a6.657,6.657,0,0,0,3.041.838A6.708,6.708,0,0,1,3.274,2.72a19.016,19.016,0,0,0,13.808,7A6.706,6.706,0,0,1,28.5,3.608a13.444,13.444,0,0,0,4.255-1.627,6.725,6.725,0,0,1-2.945,3.705,13.324,13.324,0,0,0,3.847-1.055A13.611,13.611,0,0,1,30.313,8.1Z" transform="translate(-1 -1.497)" fill="#001f12"/>
</svg>
