<svg id="Raggruppa_10" data-name="Raggruppa 10" xmlns="http://www.w3.org/2000/svg" width="34.279" height="26.535" viewBox="0 0 34.279 26.535">
  <path id="Tracciato_18" data-name="Tracciato 18" d="M29.037,13.987a27.919,27.919,0,0,0-7.072-2.222,20.736,20.736,0,0,0-.906,1.881,25.967,25.967,0,0,0-7.838,0,20.1,20.1,0,0,0-.917-1.881,27.826,27.826,0,0,0-7.077,2.228A29.659,29.659,0,0,0,.146,33.852,28.274,28.274,0,0,0,8.819,38.3a21.571,21.571,0,0,0,1.858-3.059,18.266,18.266,0,0,1-2.925-1.424c.245-.182.485-.372.717-.567a19.988,19.988,0,0,0,17.342,0c.235.2.474.386.717.567A18.22,18.22,0,0,1,23.6,35.24,21.476,21.476,0,0,0,25.454,38.3a28.218,28.218,0,0,0,8.679-4.447A29.63,29.63,0,0,0,29.037,13.987ZM11.445,29.854a3.327,3.327,0,0,1-3.082-3.506,3.31,3.31,0,0,1,3.082-3.508,3.289,3.289,0,0,1,3.082,3.508A3.306,3.306,0,0,1,11.445,29.854Zm11.389,0a3.327,3.327,0,0,1-3.082-3.506,3.31,3.31,0,0,1,3.082-3.508,3.289,3.289,0,0,1,3.082,3.508A3.307,3.307,0,0,1,22.834,29.854Z" transform="translate(0 -11.765)" fill="#001f12"/>
</svg>
