<svg xmlns="http://www.w3.org/2000/svg" width="145.619" height="46" viewBox="0 0 145.619 46"><g id="Raggruppa_739" data-name="Raggruppa 739" transform="translate(-125.958 -983.856)"><g id="Raggruppa_737" data-name="Raggruppa 737" transform="translate(125.958 983.856)"><g id="Raggruppa_735" data-name="Raggruppa 735" transform="translate(0 0)"><circle id="Ellisse_620" data-name="Ellisse 620" cx="17.725" cy="17.725" r="17.725" transform="translate(1.693 7.597)" fill="#fff"></circle><path id="Tracciato_2859" data-name="Tracciato 2859" d="M512.528,1567.621a1.055,1.055,0,0,1,.529,1.169,2.985,2.985,0,0,1-2.91,2.008c-1.6.135-2.719-.427-3.083-1.505a1.058,1.058,0,0,1,.288-1.112A4.688,4.688,0,0,1,512.528,1567.621Z" transform="translate(-490.466 -1541.771)" fill="#02202e"></path><path id="Tracciato_2860" data-name="Tracciato 2860" d="M149.308,990.157a9.954,9.954,0,0,1,3.466-2.665,12.543,12.543,0,0,0-6.89.294c-.566-1.059.626-3.93.626-3.93-4.534,1.347-5.606,4.7-5.606,4.7a7.9,7.9,0,0,0-7.172,1.677,5.376,5.376,0,0,1,3.71,1.213,19.42,19.42,0,1,0,11.866-1.292Zm7.564,30.516a16.257,16.257,0,0,1-22.641.34,16.516,16.516,0,0,1-1.441-1.544,4.452,4.452,0,0,1-.947-3.73q.02-.1.045-.19a4.118,4.118,0,0,1,.63-1.383c1.83-2.564,7.374-2.995,8.633-6.207a5.023,5.023,0,0,0-5.626-6.563l-.061.009a7.739,7.739,0,0,0-6.144,5.205,16.269,16.269,0,0,1,31.23-3.3,7.626,7.626,0,0,0-7.034-3.822l-.06,0a5.023,5.023,0,0,0-4.127,7.6c1.9,2.877,7.415,2.137,9.742,4.261a4.1,4.1,0,0,1,.883,1.176q.043.083.081.168a4.331,4.331,0,0,1-.105,3.742A16.283,16.283,0,0,1,156.872,1020.673Z" transform="translate(-125.958 -983.856)" fill="#02202e"></path></g><g id="Raggruppa_736" data-name="Raggruppa 736" transform="translate(10.7 27.994)"><path id="Tracciato_2861" data-name="Tracciato 2861" d="M390.809,1630.085a1.525,1.525,0,0,0-.806-1.267,1.49,1.49,0,0,0-1.485.046,16.731,16.731,0,0,1-14.121,1.489h0a1.518,1.518,0,0,0-1.469.285,1.487,1.487,0,0,0-.5,1.4,8.167,8.167,0,0,0,1.645,3.739c-.12.216-.237.443-.349.684l-.019.04-.017.041a8.309,8.309,0,0,0,.03,5.965,12.432,12.432,0,0,0,1.273,2.647l1,1.495,1.68-.635,1.039-.393h0l2.146-.811,1.761-.665,2.268-.857-.987-2.136a2.563,2.563,0,0,1,.2-2.317,2.869,2.869,0,0,1,1.059-.767,9.963,9.963,0,0,0,3.109-1.9A7.506,7.506,0,0,0,390.809,1630.085ZM380.054,1642.7l-.14-.389a.875.875,0,1,0-1.647.592l.149.415-1.548.585s-2.345-3.518-1.1-6.486l.031-.063c.111.074.225.146.341.215a9.6,9.6,0,0,0,4.9,1.269c.188,0,.378-.005.568-.015a5.345,5.345,0,0,0,.21,3.212Z" transform="translate(-372.404 -1628.642)" fill="#02202e"></path><path id="Tracciato_2862" data-name="Tracciato 2862" d="M444.5,1753.009a4.268,4.268,0,0,1,1.992-3.981,2.526,2.526,0,0,0-.615-.065c-.931,0-2.726.4-4,3.131-1.246,2.968,1.1,6.486,1.1,6.486l1.548-.585-.149-.415a.875.875,0,1,1,1.647-.592l.14.389,1.761-.665a4.8,4.8,0,0,1,.55-4.654,6.937,6.937,0,0,1,2.858-1.8,11.49,11.49,0,0,0,1.869-1.5,7.467,7.467,0,0,0-8.7,4.251Z" transform="translate(-438.511 -1743.32)" fill="#fff"></path></g></g><g id="Raggruppa_738" data-name="Raggruppa 738" transform="translate(173.293 1000.986)"><path id="Tracciato_2863" data-name="Tracciato 2863" d="M1223.145,1378.407a21.416,21.416,0,0,1,6.366.966l.174,3a18.091,18.091,0,0,0-6.482-1.223c-2.8,0-3.955.622-3.955,1.759,0,3.368,11.131.558,11.131,7.38,0,3.2-2.373,4.978-6.771,4.978a15.512,15.512,0,0,1-7.176-1.759l-.193-3.283a15.241,15.241,0,0,0,7.388,2.146c2.527,0,3.7-.772,3.7-2.017,0-3.712-11.131-.729-11.073-7.509C1216.278,1379.909,1218.5,1378.407,1223.145,1378.407Z" transform="translate(-1216.239 -1378.407)" fill="#02202e"></path><path id="Tracciato_2864" data-name="Tracciato 2864" d="M1589.9,1387.3h3.086v13.3h9.067v2.789H1589.9Z" transform="translate(-1573.675 -1386.916)" fill="#02202e"></path><path id="Tracciato_2865" data-name="Tracciato 2865" d="M1885.367,1387.312c0-5.085,3.337-8.41,8.584-8.41s8.584,3.326,8.584,8.41c0,5.106-3.337,8.432-8.584,8.432S1885.367,1392.418,1885.367,1387.312Zm8.584,5.6c3.337,0,5.5-2.188,5.5-5.6s-2.16-5.621-5.5-5.621-5.5,2.21-5.5,5.621S1890.614,1392.912,1893.951,1392.912Z" transform="translate(-1856.316 -1378.88)" fill="#02202e"></path><path id="Tracciato_2866" data-name="Tracciato 2866" d="M2331.9,1387.3h9.761c3.4,0,4.842,2.381,4.842,5.042a4.7,4.7,0,0,1-4.842,5.042h-6.675v6.007H2331.9Zm8.8,7.295c1.929,0,2.72-.665,2.72-2.253s-.849-2.253-2.855-2.253h-5.575v4.505Z" transform="translate(-2283.461 -1386.916)" fill="#02202e"></path><path id="Tracciato_2867" data-name="Tracciato 2867" d="M2714.9,1387.3h3.086v6.587h9.105V1387.3h3.086v16.091h-3.086v-6.715h-9.105v6.715H2714.9Z" transform="translate(-2649.831 -1386.916)" fill="#02202e"></path><path id="Tracciato_2868" data-name="Tracciato 2868" d="M3106.241,1394.64l4.668-7.338h3.568l-6.732,10.427v5.664h-3.086v-5.664l-6.771-10.427h3.627Z" transform="translate(-3016.194 -1386.916)" fill="#02202e"></path></g></g></svg>