<svg xmlns="http://www.w3.org/2000/svg" xmlns:xlink="http://www.w3.org/1999/xlink" width="72.364" height="111.812" viewBox="0 0 72.364 111.812"><defs><linearGradient id="linear-gradient" x1="-3.573" y1="-15.879" x2="-3.573" y2="-15.896" gradientUnits="objectBoundingBox"><stop offset="0.553" stop-color="#add937"></stop><stop offset="0.999" stop-color="#91b52e"></stop></linearGradient></defs><g id="Raggruppa_752" data-name="Raggruppa 752" transform="translate(-248.52 -509.554)"><g id="Raggruppa_749" data-name="Raggruppa 749"><g id="Raggruppa_976" data-name="Raggruppa 976"><rect id="Rettangolo_667" data-name="Rettangolo 667" width="60.95" height="60.95" rx="19.107" transform="matrix(0.982, -0.191, 0.191, 0.982, 248.52, 561.538)" fill="url(#linear-gradient)"></rect><path id="Tracciato_3447" data-name="Tracciato 3447" d="M275.257,618.473a19.54,19.54,0,0,1-19.141-15.785l-4.341-22.319A19.53,19.53,0,0,1,267.2,557.5l.076.393-.076-.393,22.318-4.341a19.526,19.526,0,0,1,22.872,15.424l4.34,22.318a19.506,19.506,0,0,1-15.423,22.872l-22.317,4.341A19.514,19.514,0,0,1,275.257,618.473Zm17.99-64.877a18.77,18.77,0,0,0-3.578.345l-22.317,4.341a18.729,18.729,0,0,0-14.791,21.935l4.34,22.318a18.725,18.725,0,0,0,21.935,14.791l22.317-4.342a18.7,18.7,0,0,0,14.791-21.933l-4.34-22.319A18.74,18.74,0,0,0,293.247,553.6Z" fill="#02202e"></path></g><g id="Raggruppa_977" data-name="Raggruppa 977"><rect id="Rettangolo_668" data-name="Rettangolo 668" width="59.451" height="59.451" rx="19.107" transform="matrix(0.982, -0.191, 0.191, 0.982, 251.176, 559.497)" fill="#cbfe41"></rect><path id="Tracciato_3448" data-name="Tracciato 3448" d="M277.593,614.964a19.523,19.523,0,0,1-19.107-15.789l-4.055-20.847a19.529,19.529,0,0,1,15.424-22.872L290.7,551.4a19.526,19.526,0,0,1,22.872,15.424l4.055,20.847A19.528,19.528,0,0,1,302.2,610.544L281.358,614.6A19.706,19.706,0,0,1,277.593,614.964Zm-7.662-59.115.076.392a18.729,18.729,0,0,0-14.791,21.935l4.055,20.846a18.706,18.706,0,0,0,21.935,14.791l20.847-4.054a18.73,18.73,0,0,0,14.791-21.935l-4.055-20.846a18.733,18.733,0,0,0-21.935-14.791l-20.847,4.054Z" fill="#02202e"></path></g><g id="Sloth"><g id="Raggruppa_735" data-name="Raggruppa 735"><circle id="Ellisse_620" data-name="Ellisse 620" cx="15.132" cy="15.132" r="15.132" transform="translate(271.403 569.819)" fill="#fff"></circle><g id="Raggruppa_978" data-name="Raggruppa 978"><path id="Tracciato_2859" data-name="Tracciato 2859" d="M288.835,585.012a.9.9,0,0,1,.615.906,2.55,2.55,0,0,1-2.156,2.112c-1.328.346-2.349.036-2.812-.818a.9.9,0,0,1,.082-.978A4,4,0,0,1,288.835,585.012Z" fill="#445b66"></path><path id="Tracciato_3449" data-name="Tracciato 3449" d="M286.3,588.57a2.332,2.332,0,0,1-2.167-1.168,1.3,1.3,0,0,1,.118-1.414,4.386,4.386,0,0,1,4.709-1.357h0a1.3,1.3,0,0,1,.889,1.309,2.947,2.947,0,0,1-2.5,2.486A4.243,4.243,0,0,1,286.3,588.57Zm1.313-3.35a3.591,3.591,0,0,0-2.741,1.272.5.5,0,0,0-.035.53c.373.687,1.228.915,2.359.622a2.163,2.163,0,0,0,1.863-1.79.5.5,0,0,0-.345-.461A3.58,3.58,0,0,0,287.61,585.22Z" fill="#02202e"></path></g></g><g id="Raggruppa_736" data-name="Raggruppa 736"><g id="Raggruppa_979" data-name="Raggruppa 979"><path id="Tracciato_2881" data-name="Tracciato 2881" d="M300.293,575.7a16.578,16.578,0,0,0-13.214-7.32h0a8.5,8.5,0,0,1,2.528-2.746,10.7,10.7,0,0,0-5.753,1.248c-.63-.809-.044-3.4-.044-3.4a6.934,6.934,0,0,0-4.032,4.771,6.746,6.746,0,0,0-5.79,2.452,4.587,4.587,0,0,1,3.3.482,16.57,16.57,0,0,0,6.287,30.061c.189.249.378.5.589.73l1.055,1.112,1.322-.778.817-.481.634-.373a16.575,16.575,0,0,0,12.3-25.761Zm-16.6,19.657c.005-.02.011-.037.017-.057.1.046.21.09.318.132a8.188,8.188,0,0,0,4.3.356c.159-.028.317-.061.475-.1a4.567,4.567,0,0,0,.644,2.672l-.4.233c-.414.076-.831.136-1.25.175a.717.717,0,0,0-1.007-.132.71.71,0,0,0-.169.185,13.877,13.877,0,0,1-2.417-.2,4.978,4.978,0,0,1-.51-3.266Zm14.182-2.4h0a13.814,13.814,0,0,1-6.4,4.962l-.408-.591a2.188,2.188,0,0,1-.172-1.977,2.451,2.451,0,0,1,.779-.8,8.487,8.487,0,0,0,2.34-2.046,6.412,6.412,0,0,0,1.262-5.493,1.3,1.3,0,0,0-.862-.949,1.271,1.271,0,0,0-1.244.255,14.282,14.282,0,0,1-11.663,3.3,1.3,1.3,0,0,0-1.194.453,1.27,1.27,0,0,0-.218,1.249,6.965,6.965,0,0,0,1.927,2.907c-.069.2-.135.407-.194.626l-.009.037-.008.037a6.339,6.339,0,0,0,.136,3.11,13.916,13.916,0,0,1-3.072-1.51,14.082,14.082,0,0,1-1.437-1.089,3.8,3.8,0,0,1-1.339-3c0-.056.005-.111.009-.167a3.53,3.53,0,0,1,.329-1.255c1.167-2.423,5.768-3.591,6.361-6.475a4.288,4.288,0,0,0-5.687-4.7l-.049.017a6.6,6.6,0,0,0-4.412,5.272,13.888,13.888,0,0,1,25.793-7.309,6.509,6.509,0,0,0-6.473-2.193l-.05.012a4.289,4.289,0,0,0-2.37,6.99c2.02,2.144,6.548.721,8.814,2.17a3.484,3.484,0,0,1,.914.861l.094.129a3.7,3.7,0,0,1,.455,3.163,13.909,13.909,0,0,1-1.951,4Z" fill="#445b66"></path><path id="Tracciato_3450" data-name="Tracciato 3450" d="M285.219,603.492a.4.4,0,0,1-.29-.125l-1.055-1.112c-.188-.205-.358-.422-.524-.64a16.97,16.97,0,0,1-6.855-30.358,4.182,4.182,0,0,0-2.417-.16.4.4,0,0,1-.43-.179.4.4,0,0,1,.031-.464,7.148,7.148,0,0,1,5.8-2.618,7.372,7.372,0,0,1,4.178-4.721.4.4,0,0,1,.547.456,7.424,7.424,0,0,0-.162,2.769,11.069,11.069,0,0,1,5.6-1.1.4.4,0,0,1,.2.729,8.146,8.146,0,0,0-2.053,2.054,17.021,17.021,0,0,1,12.826,7.436l.016.021a16.976,16.976,0,0,1-12.506,26.375l-2.7,1.586A.4.4,0,0,1,285.219,603.492Zm-10.173-33.3a4.975,4.975,0,0,1,2.44.653.4.4,0,0,1,.025.68,16.17,16.17,0,0,0,6.135,29.335.406.406,0,0,1,.248.152c.195.258.37.489.564.7l.833.877,2.5-1.471a.385.385,0,0,1,.168-.053,16.176,16.176,0,0,0,12.019-25.116l-.015-.02a16.219,16.219,0,0,0-12.895-7.145.4.4,0,0,1-.334-.6,8.941,8.941,0,0,1,1.747-2.161,10.306,10.306,0,0,0-4.436,1.214.4.4,0,0,1-.5-.106c-.5-.647-.406-2.022-.268-2.932a6.569,6.569,0,0,0-3.1,4.15.384.384,0,0,1-.423.3A6.387,6.387,0,0,0,275.046,570.188Zm11.51,29.036a14.453,14.453,0,0,1-2.419-.206.4.4,0,0,1-.285-.205,5.4,5.4,0,0,1-.556-3.5.382.382,0,0,1,.011-.057l.013-.043a.433.433,0,0,1,.223-.26.408.408,0,0,1,.333-.011c.094.042.2.083.3.123a7.776,7.776,0,0,0,4.082.335c.153-.026.3-.057.449-.094a.4.4,0,0,1,.5.415,4.151,4.151,0,0,0,.588,2.439.4.4,0,0,1-.142.552l-.4.232a.4.4,0,0,1-.129.048c-.426.078-.854.14-1.285.18a.4.4,0,0,1-.355-.155.311.311,0,0,0-.209-.121.323.323,0,0,0-.237.063.332.332,0,0,0-.073.081A.452.452,0,0,1,286.556,599.224Zm-2.088-.963a13.614,13.614,0,0,0,1.963.162,1.14,1.14,0,0,1,.116-.1,1.117,1.117,0,0,1,1.4.033q.483-.054.958-.139l0,0a4.931,4.931,0,0,1-.514-2.027,8.593,8.593,0,0,1-4.366-.327A4.6,4.6,0,0,0,284.468,598.261Zm-.373-2.849h0Zm-2.148,3.027a.4.4,0,0,1-.131-.022,14.294,14.294,0,0,1-3.16-1.553,14.645,14.645,0,0,1-1.48-1.122,4.181,4.181,0,0,1-1.477-3.313c0-.044,0-.1.008-.155a3.951,3.951,0,0,1,.368-1.427,8.74,8.74,0,0,1,3.1-2.921c1.446-1,2.941-2.027,3.236-3.463a3.887,3.887,0,0,0-5.16-4.243,6.206,6.206,0,0,0-4.2,4.971.4.4,0,0,1-.8-.054,14.288,14.288,0,0,1,26.536-7.52.4.4,0,0,1-.65.461,6.087,6.087,0,0,0-6.076-2.058,3.89,3.89,0,0,0-2.206,6.351c.994,1.055,2.807,1.146,4.561,1.234a8.77,8.77,0,0,1,4.165.86,3.9,3.9,0,0,1,1.02.961l.1.131a4.083,4.083,0,0,1,.514,3.517,14.254,14.254,0,0,1-1.982,4.074.318.318,0,0,1-.025.041,14.15,14.15,0,0,1-6.586,5.106.4.4,0,0,1-.47-.148l-.408-.59a2.6,2.6,0,0,1-.214-2.355,2.882,2.882,0,0,1,.934-.986,8.082,8.082,0,0,0,2.241-1.957,5.969,5.969,0,0,0,1.188-5.155.909.909,0,0,0-.6-.66.886.886,0,0,0-.853.175,14.651,14.651,0,0,1-11.994,3.4.9.9,0,0,0-.822.314.874.874,0,0,0-.149.856,6.576,6.576,0,0,0,1.819,2.746.4.4,0,0,1,.11.427c-.066.193-.129.391-.186.6a5.992,5.992,0,0,0,.117,2.965.4.4,0,0,1-.384.515ZM294.016,585.6a1.664,1.664,0,0,1,.524.084,1.711,1.711,0,0,1,1.127,1.241,6.765,6.765,0,0,1-1.343,5.833,8.836,8.836,0,0,1-2.446,2.138,2.052,2.052,0,0,0-.64.663,1.781,1.781,0,0,0,.168,1.558l.218.315a13.363,13.363,0,0,0,5.9-4.669.3.3,0,0,1,.026-.042,13.5,13.5,0,0,0,1.895-3.883,3.283,3.283,0,0,0-.4-2.824l-.085-.117a3.1,3.1,0,0,0-.809-.76,8.131,8.131,0,0,0-3.772-.734c-1.911-.1-3.888-.2-5.115-1.5a4.689,4.689,0,0,1,2.578-7.656,6.964,6.964,0,0,1,4.487.446,13.547,13.547,0,0,0-9.788-4.211h-.153a13.513,13.513,0,0,0-13.062,10.785,6.989,6.989,0,0,1,3.613-2.791,4.794,4.794,0,0,1,2.355-.234,4.688,4.688,0,0,1,3.9,5.359c-.363,1.771-1.993,2.893-3.569,3.979a8.129,8.129,0,0,0-2.827,2.607,3.124,3.124,0,0,0-.29,1.11l-.008.138a3.39,3.39,0,0,0,1.2,2.7,13.571,13.571,0,0,0,1.4,1.06,13.413,13.413,0,0,0,2.288,1.2,6.778,6.778,0,0,1,.035-2.551c.052-.2.1-.361.143-.5a7.4,7.4,0,0,1-1.845-2.894,1.671,1.671,0,0,1,.289-1.636,1.712,1.712,0,0,1,1.561-.592,13.853,13.853,0,0,0,11.341-3.207A1.665,1.665,0,0,1,294.016,585.6Zm3.859,7.358h0Z" fill="#02202e"></path></g><g id="Raggruppa_980" data-name="Raggruppa 980"><path id="Tracciato_2862" data-name="Tracciato 2862" d="M286.036,595.747a3.646,3.646,0,0,1,1.1-3.639,2.169,2.169,0,0,0-.527.034c-.783.136-2.235.728-2.912,3.216-.617,2.678,1.867,5.3,1.867,5.3l1.218-.717-.186-.328a.748.748,0,0,1,1.3-.742h0l.174.307,1.385-.816a4.1,4.1,0,0,1-.214-3.994,5.916,5.916,0,0,1,2.144-1.926,9.79,9.79,0,0,0,1.354-1.536,6.373,6.373,0,0,0-6.7,4.84Z" fill="#fff"></path><path id="Tracciato_3451" data-name="Tracciato 3451" d="M285.564,601.059a.4.4,0,0,1-.291-.125c-.107-.114-2.623-2.811-1.965-5.666.735-2.705,2.341-3.366,3.233-3.521a2.707,2.707,0,0,1,.617-.039.4.4,0,0,1,.244.7,3.252,3.252,0,0,0-.779,1.043,6.74,6.74,0,0,1,6.148-2.941.4.4,0,0,1,.294.63,10.156,10.156,0,0,1-1.41,1.6.386.386,0,0,1-.084.059,5.548,5.548,0,0,0-2,1.8,3.665,3.665,0,0,0,.22,3.556.4.4,0,0,1-.135.559l-1.385.815a.4.4,0,0,1-.306.042.394.394,0,0,1-.244-.189l-.174-.307a.349.349,0,0,0-.606.348l.187.326a.4.4,0,0,1-.145.543l-1.218.718A.4.4,0,0,1,285.564,601.059Zm.555-8.357a3.8,3.8,0,0,0-2.036,2.761c-.458,1.986,1.007,4,1.565,4.682l.591-.349a1.149,1.149,0,0,1,1.978-1.169l.695-.409a4.473,4.473,0,0,1-.03-4.026,6.368,6.368,0,0,1,2.269-2.08,9.646,9.646,0,0,0,.784-.82,5.942,5.942,0,0,0-5.507,4.549.4.4,0,0,1-.262.285.411.411,0,0,1-.319-.027.405.405,0,0,1-.2-.251A4.031,4.031,0,0,1,286.119,592.7Z" fill="#02202e"></path></g></g></g></g><path id="Tracciato_2882" data-name="Tracciato 2882" d="M316.173,583.113l-29.039-1.184,24.3-24.3Z" fill="#02202e" opacity="0.3" style="isolation: isolate"></path><path id="Tracciato_3452" data-name="Tracciato 3452" d="M286.235,579.447a.245.245,0,0,1-.176-.073l-.627-.627h-1.3a.251.251,0,0,1-.177-.073l-1.327-1.327h-2a.25.25,0,0,1,0-.5h2.1a.251.251,0,0,1,.177.073l1.327,1.327h1.3a.249.249,0,0,1,.177.073l.7.7a.25.25,0,0,1-.177.426Z" fill="#02202e"></path><path id="Tracciato_3453" data-name="Tracciato 3453" d="M292.526,582.242a.252.252,0,0,1-.226-.144l-.49-1.05a.25.25,0,0,1,.453-.211l.49,1.05a.25.25,0,0,1-.121.332A.262.262,0,0,1,292.526,582.242Z" fill="#02202e"></path><path id="Tracciato_3454" data-name="Tracciato 3454" d="M290.431,581.544a.267.267,0,0,1-.113-.026l-1.4-.7a.25.25,0,0,1,.225-.447l1.316.659,2.711-.677a.241.241,0,0,1,.3.181.249.249,0,0,1-.182.3l-2.8.7A.241.241,0,0,1,290.431,581.544Z" fill="#02202e"></path><path id="Tracciato_3455" data-name="Tracciato 3455" d="M286.929,578.045a.251.251,0,0,1-.141-.043l-1.494-1.018a.253.253,0,0,1-.081-.091l-.616-1.19-1.216-.885a.25.25,0,1,1,.294-.4l1.264.92a.242.242,0,0,1,.075.087l.614,1.185,1.441.982a.25.25,0,0,1-.14.457Z" fill="#02202e"></path><path id="Tracciato_3456" data-name="Tracciato 3456" d="M296.266,580.164a.275.275,0,0,1-.1-.02l-2.623-1.15-1.2.472a.267.267,0,0,1-.094.017l-3.217-.04a.25.25,0,0,1,0-.5h0l3.168.039,1.255-.491a.262.262,0,0,1,.191,0l2.719,1.191a.25.25,0,0,1-.1.479Z" fill="#02202e"></path><path id="Tracciato_3457" data-name="Tracciato 3457" d="M284.132,580.559a.248.248,0,0,1-.156-.055l-1.4-1.113a.25.25,0,1,1,.312-.391l1.4,1.113a.25.25,0,0,1,.04.351A.252.252,0,0,1,284.132,580.559Z" fill="#02202e"></path><path id="Tracciato_3458" data-name="Tracciato 3458" d="M289.729,583.641a.25.25,0,0,1-.177-.074l-1.4-1.4a.25.25,0,0,1,.354-.354l1.4,1.4a.25.25,0,0,1-.176.427Z" fill="#02202e"></path><g id="Raggruppa_751" data-name="Raggruppa 751"><path id="Tracciato_2887" data-name="Tracciato 2887" d="M316.457,510.017l-33.95,28.044,4.049,44.8,33.688-24.269Z" fill="#cbfe41"></path><path id="Tracciato_3459" data-name="Tracciato 3459" d="M320.2,558.927a.4.4,0,0,1-.344-.2l-8.311-13.962-29.169-6.382a.4.4,0,0,1,.171-.782l29.339,6.419a.4.4,0,0,1,.257.186l8.4,14.111a.4.4,0,0,1-.344.606Z" fill="#02202e"></path><path id="Tracciato_3460" data-name="Tracciato 3460" d="M286.514,583.2a.391.391,0,0,1-.22-.066.4.4,0,0,1-.114-.554l25.238-38.309,4.6-34.372a.415.415,0,0,1,.449-.343.4.4,0,0,1,.344.449L312.2,544.468a.4.4,0,0,1-.062.167L286.848,583.02A.4.4,0,0,1,286.514,583.2Z" fill="#02202e"></path><path id="Tracciato_2890" data-name="Tracciato 2890" d="M290.906,552.174l29.335,6.418-3.787-48.575Z" fill="#d6fe68" opacity="0.8" style="isolation: isolate"></path><path id="Tracciato_2891" data-name="Tracciato 2891" d="M290.906,552.174l-8.4-14.112,33.95-28.044Z" fill="#c1fe1c" opacity="0.95" style="isolation: isolate"></path><path id="Tracciato_2892" data-name="Tracciato 2892" d="M320.244,558.592l-33.688,24.273,4.35-30.691Z" fill="#a1de2f" opacity="0.92" style="isolation: isolate"></path><path id="Tracciato_2893" data-name="Tracciato 2893" d="M290.906,552.178l-4.35,30.691-4.049-44.8Z" fill="#b6eb28"></path><g id="Raggruppa_750" data-name="Raggruppa 750"><path id="Tracciato_3461" data-name="Tracciato 3461" d="M320.241,558.992a.439.439,0,0,1-.086-.01l-29.336-6.418a.4.4,0,0,1-.256-.6l7.608-12.552a.4.4,0,1,1,.683.414L291.537,551.9l28.264,6.184-3.649-46.8-6.036,9.958a.4.4,0,1,1-.683-.414l6.679-11.021a.392.392,0,0,1,.435-.182.4.4,0,0,1,.306.357l3.787,48.576a.4.4,0,0,1-.4.431Z" fill="#02202e"></path><path id="Tracciato_3462" data-name="Tracciato 3462" d="M303.681,531.495a.4.4,0,0,1-.342-.607l4.054-6.687a.4.4,0,1,1,.683.414l-4.054,6.687A.4.4,0,0,1,303.681,531.495Z" fill="#02202e" opacity="0.44" style="isolation: isolate"></path><path id="Tracciato_3463" data-name="Tracciato 3463" d="M303.681,531.495a.4.4,0,0,1-.342-.607l4.054-6.687a.4.4,0,1,1,.683.414l-4.054,6.687A.4.4,0,0,1,303.681,531.495Z" fill="#02202e"></path><path id="Tracciato_3464" data-name="Tracciato 3464" d="M290.906,552.574a.392.392,0,0,1-.344-.195l-8.4-14.112a.4.4,0,0,1,.089-.514l33.95-28.044a.4.4,0,0,1,.6.516l-6.68,11.021a.4.4,0,1,1-.683-.414l5.455-9-31.865,26.321,7.884,13.246,7.263-11.982a.4.4,0,1,1,.683.414l-7.607,12.552A.4.4,0,0,1,290.906,552.574Z" fill="#02202e"></path><path id="Tracciato_3465" data-name="Tracciato 3465" d="M286.556,583.266a.4.4,0,0,1-.4-.456l4.351-30.692a.4.4,0,0,1,.482-.335L320.33,558.2a.4.4,0,0,1,.148.715l-33.689,24.273A.392.392,0,0,1,286.556,583.266Zm4.686-30.61-4.159,29.336,32.2-23.2Z" fill="#02202e"></path><path id="Tracciato_3466" data-name="Tracciato 3466" d="M286.556,583.27h-.01a.4.4,0,0,1-.389-.364l-4.049-44.8a.4.4,0,0,1,.743-.241l8.4,14.11a.4.4,0,0,1,.053.26l-4.351,30.692A.4.4,0,0,1,286.556,583.27Zm-3.493-43.484,3.581,39.612,3.846-27.137Z" fill="#02202e"></path></g></g><g id="Raggruppa_981" data-name="Raggruppa 981"><path id="Tracciato_2898" data-name="Tracciato 2898" d="M287.49,583.291l-1.2-3.3-2.907.425-.646.874" fill="#fff"></path><path id="Tracciato_3467" data-name="Tracciato 3467" d="M287.49,583.541a.251.251,0,0,1-.235-.164l-1.13-3.109-2.6.38-.584.79a.25.25,0,1,1-.4-.3l.646-.874a.249.249,0,0,1,.165-.1l2.907-.425a.247.247,0,0,1,.271.161l1.2,3.3a.252.252,0,0,1-.15.321A.255.255,0,0,1,287.49,583.541Z" fill="#02202e"></path></g><g id="Raggruppa_982" data-name="Raggruppa 982"><path id="Tracciato_2899" data-name="Tracciato 2899" d="M288.449,583.949l-.144-2.29-2.018.072-.9,1.754" fill="#fff"></path><path id="Tracciato_3468" data-name="Tracciato 3468" d="M288.449,584.2a.249.249,0,0,1-.249-.234l-.13-2.047-1.628.058-.832,1.623a.25.25,0,0,1-.445-.229l.9-1.754a.252.252,0,0,1,.214-.136l2.018-.071a.263.263,0,0,1,.258.235l.144,2.29a.248.248,0,0,1-.233.264Z" fill="#02202e"></path></g><path id="Tracciato_3469" data-name="Tracciato 3469" d="M285.9,582.729a.262.262,0,0,1-.067-.008l-1.77-.488a.25.25,0,0,1,.133-.482l1.77.487a.25.25,0,0,1-.066.491Z" fill="#02202e"></path></g></svg>