<svg xmlns="http://www.w3.org/2000/svg" width="680.87" height="214.978" viewBox="0 0 680.87 214.978"><g id="The_first_ever_D2E" transform="translate(-644.028 -251.422)"><path id="Tracciato_3473" data-name="Tracciato 3473" d="M121.806,27.2h23.986V67H157.45V27.2h23.986v-9.38h-59.63Zm96.547,3.685c-9.514,0-15.142,3.484-18.961,7.437V16.75H188.136V67h11.256V45.694c3.752-3.618,8.844-6.1,17.219-6.1,8.71,0,12.73,4.623,12.73,14.606V67H240.6V54.2C240.6,41.071,237.113,30.887,218.353,30.887Zm83.415,22.244c0-12.931-8.241-22.445-27.2-22.445-16.616,0-26.666,8.844-26.666,20.234,0,10.72,11.122,17.688,27.939,17.688,10.787,0,17.219-1.541,21.909-4.221l-3.216-7.5c-3.082,2.144-11.055,3.417-18.693,3.417-9.313,0-16.214-1.541-16.214-7.169Zm-42.009-6.3c0-4.824,6.767-7.236,15.075-7.236,8.375,0,15.209,2.345,15.209,7.236Zm72.695-29.011V67h11.658V47.9h33.366v-9.38H344.112V27.2H388.8v-9.38Zm68.34,9.916c-3.618,0-5.963-1.876-5.963-5.494s2.345-5.494,5.963-5.494,5.963,1.876,5.963,5.494S404.412,27.738,400.794,27.738Zm5.628,5.762V67H395.166V33.5Zm28.877,0a20.387,20.387,0,0,0-6.968,6.3V33.5H417.075V67h11.256V47.168l.067.6c1.608-3.015,6.3-5.293,9.179-6.03a31.018,31.018,0,0,1,13.132-.134V31.691A23.125,23.125,0,0,0,435.3,33.5Zm68.474,2.01-3.685,7.236c-3.149-1.541-8.241-3.618-18.224-4.154-5.963-.335-14-.469-14,3.082,0,3.484,7.7,2.881,20.033,3.752,9.581.67,17.822,1.809,18.023,10.921,0,8.777-10.988,12.462-24.589,12.462-9.849,0-19.966-2.144-26.2-6.231l4.087-7.5c5.427,3.484,13,5.628,21.641,5.628,7.3,0,13.936-.67,13.936-3.551,0-3.551-3.685-2.479-18.894-3.551-12.127-.871-17.889-5.829-17.889-11.189,0-7.236,8.375-12.395,24.187-11.658C494.125,31.289,500.021,33.9,503.773,35.51ZM548.194,67.4V58.96c-2.546.8-7.035,2.01-10.117,2.01-5.226,0-7.437-2.144-7.437-7.169V38.86h17.353V30.552H530.707V21.038h-9.715l-1.206,9.514h-8.911V38.86h8.509V55.141c0,8.04,7.035,14.271,16.348,14.271A42.928,42.928,0,0,0,548.194,67.4ZM19.028,147V98.09H50.585c22.11,0,33.634,8.107,33.634,23.651C84.219,138.357,72.695,147,50.585,147Zm11.524-40.2v31.222H50.585c13.869,0,21.105-5.494,21.105-16.08,0-9.983-7.236-15.142-21.105-15.142Zm59.7,38.123V147h58.826v-9.38H103.716c1.139-2.881,9.112-5.963,20.837-8.71,19.564-4.556,23.919-8.643,23.919-16.348,0-9.313-10.586-15.343-26.532-15.343-11.993,0-21.574,2.278-29.48,7.035l.4,9.782c7.035-4.757,17.085-7.3,28.81-7.3,9.648,0,15.41,2.814,15.41,5.9,0,2.211-1.608,3.618-19.5,8.174C96.145,126.23,90.249,134,90.249,144.923Zm67.536-47.1V147h60.233v-9.38H169.443V126.565h36.716v-9.38H169.443V107.2h48.039v-9.38Zm143.782,33.031c-.067-11.323-9.179-18.559-22.981-18.559-7.035,0-14,2.412-17.286,6.432V113.5H250.044v46.9H261.3V142.846c2.948,3.35,9.782,6.164,17.286,6.164C292.388,149.01,301.634,141.707,301.567,130.853ZM276.844,141.3c-6.767,0-13.132-1.876-15.544-4.757V124.957c2.144-2.814,8.509-4.623,15.544-4.623,7.839,0,13.065,4.221,13.065,10.519S284.683,141.3,276.844,141.3Zm32.7-44.555V147H320.8V96.75Zm72.36,50.317v-.2l-1.34-6.7v-13.4c0-9.581-9.313-15.946-26-15.946-9.447,0-20.033,3.149-23.718,6.3l2.546,7.772.134.4c4.757-3.752,14.271-5.762,21.038-5.762,8.375,0,15.075.871,15.276,6.7H354.028c-17.956,0-24.723,4.02-24.723,11.055,0,8.174,6.767,10.921,19.966,10.921,7.3,0,16.549-2.412,20.569-6.1v4.958Zm-29.614-6.7c-8.777,0-11.524-1.072-11.524-3.752,0-3.015,2.881-4.221,11.457-4.221H369.84v.6C369.84,137.553,362.537,140.367,352.286,140.367Zm71.288,7.035V138.96c-2.546.8-7.035,2.01-10.117,2.01-5.226,0-7.437-2.144-7.437-7.169V118.86h17.353v-8.308H406.087v-9.514h-9.715l-1.206,9.514h-8.911v8.308h8.509v16.281c0,8.04,7.035,14.271,16.348,14.271A42.928,42.928,0,0,0,423.574,147.4ZM465.248,99.3l-2.211,8.107-.067.268a11.414,11.414,0,0,0-14.4-3.283c-3.819,2.144-4.288,5.963-4.355,8.308h15.276v8.04H444.21l-.134,23.45V147H433.289v-2.68l.067-23.517h-6.1v-8.04h6.1c.134-6.767,3.35-13.2,10.05-16.08C450.642,93.6,459.419,94.673,465.248,99.3Zm27.4,49.714c15.678,0,27.336-7.437,27.336-18.693,0-11.859-11.658-19.631-27.336-19.631-16.147,0-27.336,7.772-27.336,19.631C465.315,141.573,476.571,149.01,492.651,149.01Zm0-7.973c-9.38,0-15.611-4.288-15.611-10.72,0-6.566,6.231-10.921,15.611-10.921s15.611,4.355,15.611,10.921C508.262,136.749,502.031,141.037,492.651,141.037ZM546.117,113.5a20.387,20.387,0,0,0-6.968,6.3v-6.3H527.893V147h11.256V127.168l.067.6c1.608-3.015,6.3-5.293,9.179-6.03a31.018,31.018,0,0,1,13.132-.134v-9.916A23.125,23.125,0,0,0,546.117,113.5Zm84.822-2.613c-6.968,0-13.065,3.886-17.085,8.174-2.881-5.025-8.107-8.174-17.353-8.174-6.968,0-13.065,3.886-17.085,8.107V113.5H568.361V147h11.055V126.3a23.092,23.092,0,0,1,15.544-6.7c7.705,0,11.256,4.623,11.256,14.606V147h10.653V134.2a43.253,43.253,0,0,0-.938-9.648A21.9,21.9,0,0,1,629.4,119.6c7.705,0,11.323,4.623,11.323,14.606V147h10.586V134.2C651.307,121.071,647.555,110.887,630.939,110.887Z" transform="translate(625 306)" fill="#02202e"></path><path id="Tracciato_3472" data-name="Tracciato 3472" d="M-67.53-20.94a.475.475,0,0,0,.06-.3,6.975,6.975,0,0,0-.51-2.01,8.786,8.786,0,0,0-.63-1.53h-.06q-.42,0-1.14,1.68l-.9,1.98,1.44.24Q-67.83-20.64-67.53-20.94Zm-1.98-15.84a2.586,2.586,0,0,1,1.02-.18,3.6,3.6,0,0,1,2.1.72q.72.48,2.28,4.92,1.5,4.26,3.81,12.36a84.294,84.294,0,0,1,2.31,8.94,4.047,4.047,0,0,1-.48,1.8,2.669,2.669,0,0,1-1.08,1.26,3.658,3.658,0,0,1-1.62.3,2.417,2.417,0,0,1-1.98-.99,10.1,10.1,0,0,1-1.44-3.45q-.66-2.46-1.32-2.85a13.313,13.313,0,0,0-4.26-.51l-3.24-.12-1.14,2.82a12.706,12.706,0,0,1-1.83,3.3,2.661,2.661,0,0,1-2.07.9,2.694,2.694,0,0,1-2.88-3.06,31.75,31.75,0,0,1,1.95-5.76q1.95-4.98,4.47-10.5,2.64-5.7,3.06-7.02A4.1,4.1,0,0,1-69.51-36.78Zm14.82,1.32a2.68,2.68,0,0,1,1.62-.48,3.984,3.984,0,0,1,3.36,2.1q.84,1.32,3.36,5.94l2.58,4.8.18-5.34q.12-4.02.24-4.77a2.572,2.572,0,0,1,.78-1.41,2.814,2.814,0,0,1,2.04-.9,2.785,2.785,0,0,1,2.16,1.02l.84.96.24,11.22q.06,2.88.06,6.96a27.666,27.666,0,0,1-.39,5.94,3.4,3.4,0,0,1-1.65,2.1,2.553,2.553,0,0,1-1.26.3,3.1,3.1,0,0,1-2.22-1.02,52.706,52.706,0,0,1-4.14-7.5l-3.3-6.66-.36,6.9-.3,6.9-.84.84a2.814,2.814,0,0,1-2.04.9,2.848,2.848,0,0,1-1.95-.78,3.261,3.261,0,0,1-1.05-2.04q-.06-.3-.06-3.42,0-5.46.12-8.82.24-8.7.54-10.8A4.207,4.207,0,0,1-54.69-35.46Zm28.14,5.82q-1.74-2.04-2.82-2.04a.347.347,0,0,0-.24.06,36.537,36.537,0,0,0-.18,5.7q0,6.72.24,9.3l.18,2.82,1.08-1.02a10.567,10.567,0,0,0,2.28-3.45,13.56,13.56,0,0,0,1.14-4.29A12.649,12.649,0,0,0-24.81-24,8.565,8.565,0,0,0-26.55-29.64Zm-7.44-8.16a5.026,5.026,0,0,1,2.58-.6,11.741,11.741,0,0,1,4.65,1.08,13.708,13.708,0,0,1,4.29,2.88q3.9,3.9,3.9,10.5a20.386,20.386,0,0,1-2.04,8.85A16.171,16.171,0,0,1-26.25-8.4a9.734,9.734,0,0,1-4.92,1.98,6.668,6.668,0,0,1-1.5-.18,3.3,3.3,0,0,1-2.37-1.41,13.315,13.315,0,0,1-.69-4.41q-.24-4.08-.24-13.14v-3.12a41.981,41.981,0,0,1,.33-6.9A3.367,3.367,0,0,1-33.99-37.8Zm49.62,7.92a6.334,6.334,0,0,0-3.06-.9,6.96,6.96,0,0,0-1.8.24,9.38,9.38,0,0,0-3.66,1.98,9.456,9.456,0,0,0-2.52,3.3,8.075,8.075,0,0,0-.6,3.24,8.243,8.243,0,0,0,.6,3.3,10.1,10.1,0,0,0,1.95,2.73,9.684,9.684,0,0,0,2.55,2.01,5.82,5.82,0,0,0,2.64.6,7.128,7.128,0,0,0,3.96-1.26,8.951,8.951,0,0,0,3.06-3.48,8.335,8.335,0,0,0,.84-3.78,11.028,11.028,0,0,0-.72-3.9A7.39,7.39,0,0,0,15.63-29.88ZM9.03-36.6a8.643,8.643,0,0,1,3.06-.54,12.716,12.716,0,0,1,6.21,1.71,13.54,13.54,0,0,1,4.89,4.47,18.46,18.46,0,0,1,2.64,8.1,5.437,5.437,0,0,1,.06.96,14.573,14.573,0,0,1-2.13,7.26,14.618,14.618,0,0,1-5.19,5.52A13.323,13.323,0,0,1,11.55-7.2a8.933,8.933,0,0,1-2.58-.3,13.916,13.916,0,0,1-6.12-3.9A17.757,17.757,0,0,1,.33-14.46a34.054,34.054,0,0,1-2.22-4.62,5.986,5.986,0,0,1-.48-2.64,11.434,11.434,0,0,1,.3-2.76A14.9,14.9,0,0,1,2.25-32.4a17.265,17.265,0,0,1,2.97-2.46A21.3,21.3,0,0,1,9.03-36.6Zm20.16,1.14a2.68,2.68,0,0,1,1.62-.48,3.984,3.984,0,0,1,3.36,2.1q.84,1.32,3.36,5.94l2.58,4.8.18-5.34q.12-4.02.24-4.77a2.572,2.572,0,0,1,.78-1.41,2.814,2.814,0,0,1,2.04-.9,2.785,2.785,0,0,1,2.16,1.02l.84.96.24,11.22q.06,2.88.06,6.96a27.666,27.666,0,0,1-.39,5.94,3.4,3.4,0,0,1-1.65,2.1,2.553,2.553,0,0,1-1.26.3,3.1,3.1,0,0,1-2.22-1.02,52.706,52.706,0,0,1-4.14-7.5l-3.3-6.66-.36,6.9-.3,6.9-.84.84a2.814,2.814,0,0,1-2.04.9,2.848,2.848,0,0,1-1.95-.78,3.261,3.261,0,0,1-1.05-2.04q-.06-.3-.06-3.42,0-5.46.12-8.82.24-8.7.54-10.8A4.207,4.207,0,0,1,29.19-35.46Zm20.46-.9a2.923,2.923,0,0,1,1.2-.24,2.682,2.682,0,0,1,1.83.72,3.688,3.688,0,0,1,1.11,1.92q.42,1.38.42,7.92.12,8.34.24,9.84l.18,3.3h1.5a4.824,4.824,0,0,1,3.66,1.32,2.7,2.7,0,0,1,.66,1.8,3.258,3.258,0,0,1-.78,2.1,2.125,2.125,0,0,1-1.11.72,29.414,29.414,0,0,1-3.15.24q-.36,0-.96.03t-.84.03a8.549,8.549,0,0,1-3.27-.45,3.611,3.611,0,0,1-1.65-1.71,6.357,6.357,0,0,1-.54-2.58q-.06-1.62-.18-10.98,0-1.5-.03-3.66t-.03-2.94q0-3.36.15-4.8a4.231,4.231,0,0,1,.45-1.83A2.862,2.862,0,0,1,49.65-36.36Zm13.44-.36a3.265,3.265,0,0,1,1.56-.42,2.32,2.32,0,0,1,1.62.6q.84.6,3.24,4.62,2.4,3.96,2.64,3.96t1.92-3.84a22.313,22.313,0,0,1,2.16-4.44,2.507,2.507,0,0,1,2.1-.84,2.666,2.666,0,0,1,2.76,1.62,2.923,2.923,0,0,1,.24,1.2q0,1.2-1.98,5.82-2.1,4.74-4.8,11.34-2.7,6.36-3.66,8.25A4.933,4.933,0,0,1,69.15-6.6a3.313,3.313,0,0,1-1.5.36,2.584,2.584,0,0,1-1.98-.84,3.049,3.049,0,0,1-.78-2.16q0-1.2,2.1-5.94a45.586,45.586,0,0,0,2.04-5.1,59.629,59.629,0,0,0-3.6-6.36,60.728,60.728,0,0,1-3.72-6.9,1.82,1.82,0,0,1-.06-.54A2.837,2.837,0,0,1,63.09-36.72Z" transform="translate(1235.208 316.418) rotate(21)" fill="#02202e"></path><path id="Tracciato_2869" data-name="Tracciato 2869" d="M1188.346,256.133l13.636,40.951s23.467-31.521,52.483-29.779" transform="translate(53.637 -103.545) rotate(8)" fill="none" stroke="#ff5229" stroke-linecap="round" stroke-linejoin="round" stroke-width="7"></path></g></svg>